<svg xmlns="http://www.w3.org/2000/svg" xmlns:xlink="http://www.w3.org/1999/xlink" width="500" zoomAndPan="magnify" viewBox="0 0 375 374.999991" height="500" preserveAspectRatio="xMidYMid meet" version="1.0"><defs><g/><clipPath id="id1"><path d="M 148 109.351562 L 227 109.351562 L 227 218.101562 L 148 218.101562 Z M 148 109.351562 " clip-rule="nonzero"/></clipPath></defs><path fill="rgb(18.03894%, 71.369934%, 85.879517%)" d="M 187.375 157.351562 C 184.1875 157.351562 181.59375 154.746094 181.59375 151.550781 C 181.59375 148.351562 184.1875 145.746094 187.375 145.746094 C 190.5625 145.746094 193.160156 148.351562 193.160156 151.550781 C 193.15625 154.746094 190.5625 157.351562 187.375 157.351562 Z M 187.375 157.351562 " fill-opacity="1" fill-rule="nonzero"/><path fill="rgb(93.728638%, 61.959839%, 79.219055%)" d="M 187.023438 212.957031 C 186.320312 211.617188 185.589844 209.59375 185.199219 208.507812 L 184.886719 207.636719 C 184.632812 206.941406 183.988281 206.453125 183.253906 206.390625 C 183.207031 206.390625 183.15625 206.386719 183.109375 206.386719 C 182.414062 206.386719 181.777344 206.753906 181.433594 207.347656 C 181.105469 207.914062 180.765625 208.410156 180.417969 208.816406 L 180.242188 209.019531 L 180.066406 208.816406 C 178.148438 206.578125 176.871094 202.238281 176.789062 199.503906 L 176.78125 199.355469 L 176.914062 199.289062 C 181.007812 197.25 184.464844 194.351562 187.1875 190.675781 L 187.371094 190.425781 L 187.554688 190.675781 C 190.277344 194.355469 193.734375 197.253906 197.824219 199.289062 L 197.957031 199.351562 L 197.953125 199.5 C 197.871094 202.230469 196.59375 206.570312 194.671875 208.8125 L 194.496094 209.015625 L 194.320312 208.8125 C 193.914062 208.335938 193.515625 207.738281 193.136719 207.039062 C 192.804688 206.417969 192.160156 206.035156 191.464844 206.035156 C 191.410156 206.035156 191.359375 206.039062 191.304688 206.042969 C 190.550781 206.105469 189.902344 206.605469 189.65625 207.320312 L 189.457031 207.894531 C 189.054688 209.058594 188.21875 211.476562 187.425781 212.960938 L 187.222656 213.34375 Z M 187.023438 212.957031 " fill-opacity="1" fill-rule="nonzero"/><path fill="rgb(18.03894%, 71.369934%, 85.879517%)" d="M 210.527344 198.441406 C 206.847656 198.441406 203.300781 197.652344 199.992188 196.09375 C 195.789062 194.113281 192.226562 190.996094 189.699219 187.082031 L 189.621094 186.957031 L 189.699219 186.832031 C 189.71875 186.808594 189.734375 186.78125 189.75 186.753906 C 189.769531 186.722656 189.789062 186.6875 189.8125 186.652344 C 189.910156 186.511719 190.007812 186.371094 190.105469 186.230469 L 190.207031 186.085938 C 190.382812 185.832031 190.558594 185.582031 190.742188 185.339844 C 190.863281 185.179688 190.988281 185.027344 191.109375 184.871094 L 191.175781 184.792969 C 191.363281 184.558594 191.550781 184.328125 191.75 184.097656 C 191.890625 183.933594 192.039062 183.769531 192.1875 183.609375 L 192.21875 183.574219 C 192.382812 183.394531 192.601562 183.160156 192.828125 182.929688 C 192.992188 182.761719 193.160156 182.597656 193.332031 182.433594 C 193.570312 182.203125 193.777344 182.011719 193.972656 181.835938 C 194.148438 181.675781 194.328125 181.519531 194.507812 181.367188 C 194.730469 181.179688 194.953125 180.996094 195.183594 180.816406 C 195.371094 180.671875 195.558594 180.527344 195.75 180.382812 C 195.980469 180.210938 196.214844 180.042969 196.453125 179.878906 C 196.648438 179.746094 196.84375 179.613281 197.042969 179.484375 C 197.285156 179.324219 197.53125 179.171875 197.777344 179.023438 C 197.980469 178.902344 198.183594 178.78125 198.390625 178.664062 C 198.640625 178.523438 198.898438 178.386719 199.152344 178.253906 L 199.179688 178.242188 C 199.378906 178.136719 199.582031 178.035156 199.785156 177.9375 C 200.042969 177.808594 200.308594 177.691406 200.574219 177.574219 L 200.679688 177.527344 C 200.859375 177.449219 201.039062 177.367188 201.222656 177.292969 C 201.492188 177.1875 201.761719 177.085938 202.035156 176.988281 L 202.191406 176.929688 C 202.359375 176.867188 202.53125 176.804688 202.703125 176.746094 C 202.957031 176.660156 203.214844 176.582031 203.472656 176.507812 L 203.734375 176.429688 C 203.890625 176.378906 204.050781 176.332031 204.214844 176.289062 C 204.472656 176.21875 204.738281 176.160156 205 176.101562 L 205.308594 176.03125 C 205.460938 175.996094 205.609375 175.960938 205.757812 175.929688 C 206.03125 175.875 206.3125 175.832031 206.585938 175.789062 C 206.585938 175.789062 206.855469 175.746094 206.929688 175.734375 C 207.0625 175.710938 207.195312 175.6875 207.328125 175.671875 C 207.65625 175.628906 207.988281 175.597656 208.3125 175.570312 L 208.390625 175.566406 C 208.460938 175.558594 208.53125 175.550781 208.597656 175.542969 C 208.707031 175.53125 208.8125 175.519531 208.921875 175.511719 C 209.46875 175.476562 210.007812 175.460938 210.53125 175.460938 C 210.839844 175.460938 211.167969 175.464844 211.507812 175.476562 C 212.300781 175.507812 213.019531 175.59375 213.699219 175.738281 C 220.242188 177.054688 222.792969 183.015625 222.394531 187.996094 C 222.023438 192.632812 218.953125 198.144531 211.511719 198.4375 C 211.191406 198.4375 210.863281 198.441406 210.527344 198.441406 Z M 164.222656 198.441406 C 163.890625 198.441406 163.5625 198.4375 163.238281 198.421875 C 155.800781 198.132812 152.726562 192.617188 152.359375 187.984375 C 151.960938 183.003906 154.519531 177.042969 161.070312 175.71875 C 161.734375 175.582031 162.460938 175.496094 163.226562 175.460938 C 163.582031 175.449219 163.910156 175.445312 164.222656 175.445312 C 164.746094 175.445312 165.289062 175.464844 165.832031 175.5 C 165.941406 175.507812 166.046875 175.519531 166.152344 175.53125 C 166.222656 175.535156 166.292969 175.542969 166.359375 175.550781 L 166.441406 175.558594 C 166.765625 175.585938 167.097656 175.617188 167.421875 175.65625 C 167.554688 175.675781 167.691406 175.695312 167.820312 175.71875 C 167.894531 175.730469 168.183594 175.777344 168.183594 175.777344 C 168.449219 175.820312 168.722656 175.863281 168.988281 175.917969 C 169.140625 175.945312 169.289062 175.980469 169.4375 176.015625 L 169.746094 176.089844 C 170.007812 176.148438 170.269531 176.207031 170.53125 176.277344 C 170.695312 176.320312 170.851562 176.367188 171.011719 176.414062 L 171.273438 176.492188 C 171.535156 176.570312 171.789062 176.644531 172.046875 176.730469 C 172.21875 176.789062 172.394531 176.855469 172.566406 176.917969 L 172.707031 176.96875 C 172.980469 177.070312 173.257812 177.167969 173.527344 177.28125 C 173.707031 177.355469 173.890625 177.4375 174.070312 177.515625 L 174.171875 177.5625 C 174.4375 177.675781 174.703125 177.792969 174.964844 177.921875 C 175.171875 178.023438 175.375 178.128906 175.578125 178.234375 C 175.851562 178.375 176.105469 178.511719 176.359375 178.652344 C 176.566406 178.769531 176.769531 178.894531 176.972656 179.015625 C 177.21875 179.164062 177.464844 179.316406 177.707031 179.472656 C 177.90625 179.601562 178.101562 179.734375 178.296875 179.871094 C 178.535156 180.035156 178.769531 180.203125 179 180.371094 C 179.191406 180.515625 179.378906 180.660156 179.566406 180.808594 C 179.792969 180.988281 180.015625 181.167969 180.238281 181.355469 C 180.417969 181.511719 180.597656 181.667969 180.777344 181.828125 C 180.992188 182.019531 181.203125 182.21875 181.410156 182.421875 C 181.585938 182.585938 181.753906 182.75 181.921875 182.921875 C 182.125 183.132812 182.324219 183.34375 182.523438 183.558594 L 182.5625 183.601562 C 182.707031 183.761719 182.855469 183.925781 183 184.09375 C 183.195312 184.316406 183.375 184.542969 183.5625 184.777344 L 183.632812 184.867188 C 183.757812 185.019531 183.882812 185.175781 184.007812 185.335938 C 184.183594 185.574219 184.355469 185.816406 184.523438 186.054688 L 184.625 186.203125 C 184.730469 186.351562 184.835938 186.5 184.933594 186.652344 C 184.953125 186.683594 184.976562 186.714844 184.996094 186.75 C 185.011719 186.777344 185.027344 186.800781 185.042969 186.824219 L 185.125 186.949219 L 185.042969 187.074219 C 182.515625 190.984375 178.957031 194.101562 174.75 196.085938 C 171.449219 197.652344 167.90625 198.441406 164.222656 198.441406 Z M 187.191406 183.1875 C 187.167969 183.15625 187.140625 183.121094 187.117188 183.089844 C 187.085938 183.058594 187.0625 183.027344 187.035156 182.992188 C 186.929688 182.851562 186.820312 182.714844 186.714844 182.578125 L 186.597656 182.4375 C 186.398438 182.1875 186.160156 181.890625 185.90625 181.59375 C 185.746094 181.410156 185.582031 181.230469 185.417969 181.050781 C 185.164062 180.769531 184.925781 180.515625 184.691406 180.277344 C 184.519531 180.097656 184.347656 179.925781 184.167969 179.753906 C 183.933594 179.527344 183.679688 179.289062 183.394531 179.03125 L 183.339844 178.976562 C 183.179688 178.835938 183.019531 178.691406 182.855469 178.550781 C 182.566406 178.300781 182.261719 178.058594 182.007812 177.851562 L 181.84375 177.722656 C 181.722656 177.625 181.601562 177.527344 181.476562 177.433594 C 181.152344 177.1875 180.808594 176.945312 180.488281 176.722656 C 180.429688 176.679688 180.367188 176.636719 180.304688 176.59375 C 180.21875 176.53125 180.128906 176.46875 180.039062 176.40625 C 179.53125 176.070312 179.027344 175.757812 178.539062 175.472656 C 178.519531 175.464844 178.503906 175.453125 178.488281 175.445312 C 178.464844 175.433594 178.441406 175.421875 178.417969 175.40625 C 177.945312 175.132812 177.460938 174.875 176.988281 174.636719 C 176.878906 174.585938 176.773438 174.535156 176.664062 174.484375 C 176.589844 174.449219 176.523438 174.417969 176.453125 174.386719 C 176.132812 174.234375 175.757812 174.058594 175.386719 173.898438 C 175.234375 173.835938 175.082031 173.773438 174.929688 173.714844 L 174.746094 173.640625 C 174.445312 173.523438 174.097656 173.386719 173.734375 173.257812 C 173.511719 173.179688 173.285156 173.105469 173.058594 173.03125 C 172.6875 172.910156 172.359375 172.808594 172.042969 172.71875 C 171.804688 172.652344 171.570312 172.582031 171.332031 172.523438 C 171.019531 172.441406 170.683594 172.363281 170.304688 172.28125 C 170.058594 172.226562 169.824219 172.175781 169.589844 172.128906 C 169.214844 172.058594 168.835938 171.996094 168.511719 171.945312 L 168.320312 171.917969 C 168.152344 171.890625 167.988281 171.863281 167.820312 171.84375 C 167.410156 171.789062 166.988281 171.753906 166.625 171.722656 C 166.546875 171.714844 166.46875 171.707031 166.390625 171.703125 C 166.273438 171.691406 166.15625 171.679688 166.035156 171.671875 C 165.394531 171.628906 164.808594 171.609375 164.230469 171.609375 C 163.882812 171.609375 163.523438 171.617188 163.09375 171.632812 C 163.003906 171.636719 162.914062 171.640625 162.820312 171.644531 L 162.570312 171.660156 L 162.574219 171.410156 C 162.71875 161.773438 165.257812 150.046875 169.542969 139.242188 C 174.152344 127.617188 180.140625 118.714844 186.398438 114.183594 C 186.6875 113.976562 187.027344 113.863281 187.382812 113.863281 C 187.738281 113.863281 188.082031 113.976562 188.367188 114.1875 C 194.625 118.71875 200.613281 127.621094 205.222656 139.246094 C 209.503906 150.050781 212.042969 161.773438 212.1875 171.410156 L 212.191406 171.660156 L 211.945312 171.648438 C 211.847656 171.644531 211.75 171.640625 211.652344 171.632812 C 211.242188 171.621094 210.878906 171.617188 210.535156 171.617188 C 209.960938 171.617188 209.371094 171.636719 208.730469 171.675781 C 208.613281 171.683594 208.492188 171.695312 208.375 171.707031 C 208.296875 171.714844 208.222656 171.722656 208.140625 171.726562 C 207.777344 171.757812 207.355469 171.796875 206.945312 171.847656 C 206.777344 171.867188 206.613281 171.894531 206.449219 171.917969 L 206.25 171.949219 C 205.929688 171.996094 205.550781 172.058594 205.179688 172.128906 C 204.941406 172.175781 204.710938 172.226562 204.472656 172.277344 C 204.085938 172.363281 203.75 172.441406 203.4375 172.523438 C 203.199219 172.585938 202.957031 172.652344 202.71875 172.71875 C 202.40625 172.8125 202.078125 172.910156 201.71875 173.027344 C 201.488281 173.105469 201.253906 173.179688 201.027344 173.261719 C 200.667969 173.390625 200.320312 173.527344 200.027344 173.640625 L 199.851562 173.710938 C 199.691406 173.773438 199.53125 173.835938 199.375 173.902344 C 199.015625 174.058594 198.660156 174.226562 198.324219 174.382812 C 198.253906 174.414062 198.183594 174.449219 198.113281 174.480469 C 198 174.535156 197.886719 174.585938 197.773438 174.644531 C 197.316406 174.871094 196.863281 175.113281 196.378906 175.390625 C 196.351562 175.40625 196.324219 175.421875 196.292969 175.4375 C 196.269531 175.449219 196.242188 175.460938 196.21875 175.476562 C 195.734375 175.757812 195.234375 176.070312 194.726562 176.40625 C 194.632812 176.46875 194.539062 176.539062 194.445312 176.601562 C 194.382812 176.644531 194.320312 176.691406 194.257812 176.734375 C 193.894531 176.988281 193.585938 177.203125 193.285156 177.429688 C 193.15625 177.527344 193.03125 177.628906 192.90625 177.730469 L 192.746094 177.859375 C 192.492188 178.058594 192.195312 178.296875 191.90625 178.546875 C 191.738281 178.691406 191.570312 178.839844 191.40625 178.988281 L 191.359375 179.03125 C 191.074219 179.289062 190.824219 179.523438 190.589844 179.746094 C 190.414062 179.921875 190.238281 180.09375 190.066406 180.273438 C 189.832031 180.511719 189.59375 180.765625 189.34375 181.042969 C 189.175781 181.222656 189.011719 181.40625 188.855469 181.589844 C 188.601562 181.882812 188.363281 182.179688 188.160156 182.433594 L 188.042969 182.578125 C 187.933594 182.714844 187.828125 182.847656 187.726562 182.984375 C 187.699219 183.019531 187.671875 183.050781 187.644531 183.085938 C 187.621094 183.117188 187.59375 183.148438 187.570312 183.183594 L 187.386719 183.429688 Z M 187.375 141.914062 C 182.082031 141.914062 177.773438 146.234375 177.773438 151.550781 C 177.773438 156.863281 182.082031 161.1875 187.375 161.1875 C 192.671875 161.1875 196.980469 156.863281 196.980469 151.550781 C 196.980469 146.234375 192.671875 141.914062 187.375 141.914062 Z M 187.375 141.914062 " fill-opacity="1" fill-rule="nonzero"/><g clip-path="url(#id1)"><path fill="rgb(7.839966%, 12.548828%, 13.729858%)" d="M 216.238281 172.203125 C 216.226562 151.917969 205.753906 121.765625 190.738281 110.886719 C 188.730469 109.429688 186.027344 109.429688 184.019531 110.886719 C 168.996094 121.765625 158.523438 151.921875 158.511719 172.207031 C 152.84375 174.101562 147.628906 179.621094 148.320312 188.308594 C 148.859375 195.101562 153.636719 202.117188 163.082031 202.488281 C 163.460938 202.5 163.839844 202.507812 164.226562 202.507812 C 167.195312 202.507812 170.089844 202.054688 172.871094 201.179688 C 173.386719 205.195312 175.332031 210.589844 178.570312 212.933594 C 179.574219 213.660156 180.921875 213.660156 181.921875 212.933594 C 182.082031 212.820312 182.238281 212.695312 182.394531 212.5625 C 183.300781 214.808594 184.242188 216.554688 185.539062 217.492188 C 186.039062 217.855469 186.628906 218.035156 187.214844 218.035156 C 187.804688 218.035156 188.390625 217.855469 188.894531 217.492188 C 190.226562 216.527344 191.222656 214.671875 192.136719 212.378906 C 192.359375 212.578125 192.589844 212.761719 192.820312 212.929688 C 193.828125 213.667969 195.179688 213.664062 196.179688 212.933594 C 199.417969 210.589844 201.367188 205.195312 201.878906 201.179688 C 204.660156 202.054688 207.554688 202.507812 210.527344 202.507812 C 210.910156 202.507812 211.289062 202.503906 211.667969 202.488281 C 221.113281 202.117188 225.890625 195.101562 226.429688 188.308594 C 227.125 179.609375 221.898438 174.089844 216.238281 172.203125 Z M 186.527344 114.371094 C 187.035156 114.003906 187.714844 114.003906 188.226562 114.375 C 201.613281 124.070312 211.664062 152.21875 211.949219 171.417969 C 211.851562 171.410156 211.753906 171.40625 211.652344 171.402344 C 211.28125 171.390625 210.90625 171.382812 210.527344 171.382812 C 209.917969 171.382812 209.308594 171.40625 208.707031 171.445312 C 208.507812 171.457031 208.3125 171.480469 208.113281 171.496094 C 207.710938 171.53125 207.304688 171.570312 206.90625 171.621094 C 206.675781 171.648438 206.441406 171.691406 206.210938 171.722656 C 205.847656 171.78125 205.484375 171.839844 205.128906 171.90625 C 204.886719 171.953125 204.644531 172.007812 204.40625 172.058594 C 204.058594 172.136719 203.714844 172.21875 203.375 172.304688 C 203.128906 172.367188 202.890625 172.433594 202.648438 172.503906 C 202.3125 172.601562 201.972656 172.703125 201.640625 172.8125 C 201.40625 172.890625 201.171875 172.964844 200.941406 173.050781 C 200.601562 173.167969 200.265625 173.300781 199.933594 173.429688 C 199.714844 173.519531 199.492188 173.601562 199.277344 173.695312 C 198.917969 173.847656 198.566406 174.011719 198.214844 174.179688 C 198.03125 174.265625 197.84375 174.347656 197.660156 174.441406 C 197.183594 174.679688 196.714844 174.933594 196.253906 175.195312 C 196.199219 175.226562 196.148438 175.25 196.09375 175.28125 C 195.582031 175.578125 195.082031 175.894531 194.589844 176.21875 C 194.429688 176.328125 194.277344 176.441406 194.117188 176.550781 C 193.789062 176.777344 193.457031 177.011719 193.136719 177.253906 C 192.953125 177.390625 192.777344 177.539062 192.59375 177.683594 C 192.308594 177.910156 192.023438 178.140625 191.746094 178.375 C 191.558594 178.535156 191.378906 178.699219 191.195312 178.863281 C 190.933594 179.101562 190.675781 179.34375 190.421875 179.585938 C 190.242188 179.761719 190.066406 179.9375 189.890625 180.117188 C 189.644531 180.371094 189.402344 180.628906 189.160156 180.894531 C 188.996094 181.078125 188.828125 181.257812 188.667969 181.449219 C 188.425781 181.726562 188.195312 182.011719 187.96875 182.296875 C 187.820312 182.484375 187.671875 182.664062 187.527344 182.851562 C 187.476562 182.921875 187.421875 182.984375 187.371094 183.050781 C 187.320312 182.984375 187.265625 182.921875 187.21875 182.855469 C 187.074219 182.664062 186.921875 182.484375 186.773438 182.296875 C 186.546875 182.011719 186.3125 181.726562 186.078125 181.449219 C 185.914062 181.261719 185.75 181.078125 185.585938 180.898438 C 185.34375 180.632812 185.101562 180.375 184.851562 180.121094 C 184.679688 179.945312 184.503906 179.769531 184.328125 179.597656 C 184.074219 179.347656 183.8125 179.105469 183.546875 178.863281 C 183.367188 178.703125 183.1875 178.539062 183.003906 178.382812 C 182.722656 178.140625 182.4375 177.910156 182.148438 177.679688 C 181.96875 177.539062 181.792969 177.398438 181.613281 177.261719 C 181.285156 177.011719 180.953125 176.777344 180.613281 176.542969 C 180.460938 176.441406 180.316406 176.328125 180.164062 176.226562 C 179.667969 175.898438 179.164062 175.582031 178.652344 175.285156 C 178.613281 175.261719 178.570312 175.242188 178.53125 175.21875 C 178.058594 174.949219 177.574219 174.6875 177.085938 174.445312 C 176.910156 174.351562 176.726562 174.273438 176.546875 174.1875 C 176.191406 174.019531 175.835938 173.851562 175.472656 173.699219 C 175.257812 173.609375 175.042969 173.523438 174.828125 173.4375 C 174.492188 173.304688 174.152344 173.171875 173.808594 173.050781 C 173.578125 172.96875 173.347656 172.894531 173.113281 172.816406 C 172.78125 172.707031 172.441406 172.601562 172.101562 172.503906 C 171.863281 172.433594 171.625 172.371094 171.382812 172.308594 C 171.039062 172.21875 170.695312 172.140625 170.347656 172.0625 C 170.105469 172.007812 169.867188 171.957031 169.628906 171.910156 C 169.265625 171.839844 168.90625 171.78125 168.542969 171.726562 C 168.3125 171.691406 168.082031 171.652344 167.847656 171.621094 C 167.445312 171.570312 167.042969 171.535156 166.636719 171.5 C 166.4375 171.484375 166.242188 171.457031 166.046875 171.445312 C 165.441406 171.40625 164.835938 171.386719 164.226562 171.386719 C 163.847656 171.386719 163.476562 171.394531 163.085938 171.40625 C 162.992188 171.410156 162.898438 171.414062 162.804688 171.421875 C 163.085938 152.214844 173.136719 124.070312 186.527344 114.371094 Z M 164.222656 198.210938 C 163.894531 198.210938 163.574219 198.203125 163.25 198.191406 C 155.960938 197.910156 152.953125 192.507812 152.589844 187.96875 C 152.203125 183.085938 154.699219 177.242188 161.117188 175.949219 C 161.765625 175.8125 162.484375 175.730469 163.234375 175.695312 C 163.5625 175.683594 163.890625 175.679688 164.222656 175.679688 C 164.757812 175.679688 165.289062 175.699219 165.820312 175.734375 C 165.992188 175.746094 166.167969 175.769531 166.34375 175.785156 C 166.695312 175.816406 167.046875 175.84375 167.394531 175.890625 C 167.601562 175.917969 167.804688 175.957031 168.011719 175.992188 C 168.324219 176.039062 168.640625 176.089844 168.949219 176.148438 C 169.167969 176.191406 169.382812 176.246094 169.597656 176.292969 C 169.894531 176.359375 170.1875 176.425781 170.480469 176.503906 C 170.699219 176.558594 170.917969 176.628906 171.136719 176.695312 C 171.417969 176.777344 171.703125 176.863281 171.980469 176.953125 C 172.199219 177.027344 172.414062 177.109375 172.632812 177.191406 C 172.90625 177.289062 173.175781 177.390625 173.445312 177.5 C 173.664062 177.589844 173.875 177.683594 174.085938 177.777344 C 174.351562 177.894531 174.613281 178.011719 174.871094 178.136719 C 175.082031 178.238281 175.289062 178.347656 175.496094 178.453125 C 175.75 178.585938 176.003906 178.722656 176.253906 178.859375 C 176.457031 178.976562 176.660156 179.097656 176.859375 179.21875 C 177.105469 179.363281 177.347656 179.511719 177.585938 179.671875 C 177.78125 179.796875 177.980469 179.929688 178.171875 180.066406 C 178.410156 180.226562 178.640625 180.394531 178.867188 180.5625 C 179.058594 180.703125 179.242188 180.847656 179.429688 180.992188 C 179.65625 181.167969 179.875 181.351562 180.09375 181.539062 C 180.273438 181.691406 180.453125 181.847656 180.628906 182.003906 C 180.839844 182.195312 181.050781 182.390625 181.257812 182.589844 C 181.429688 182.757812 181.597656 182.921875 181.765625 183.089844 C 181.96875 183.296875 182.164062 183.507812 182.359375 183.722656 C 182.519531 183.894531 182.679688 184.070312 182.832031 184.25 C 183.023438 184.46875 183.207031 184.699219 183.390625 184.925781 C 183.539062 185.113281 183.6875 185.292969 183.828125 185.480469 C 184.007812 185.71875 184.175781 185.960938 184.34375 186.203125 C 184.480469 186.394531 184.617188 186.585938 184.75 186.785156 C 184.785156 186.839844 184.820312 186.898438 184.855469 186.953125 C 182.347656 190.832031 178.847656 193.90625 174.660156 195.882812 C 171.382812 197.425781 167.871094 198.210938 164.222656 198.210938 Z M 194.503906 208.660156 C 194.105469 208.195312 193.71875 207.613281 193.347656 206.925781 C 192.945312 206.179688 192.144531 205.738281 191.292969 205.808594 C 190.449219 205.878906 189.722656 206.441406 189.445312 207.242188 L 189.246094 207.816406 C 188.832031 209.015625 188.015625 211.386719 187.230469 212.851562 C 186.535156 211.527344 185.796875 209.480469 185.421875 208.425781 L 185.105469 207.558594 C 184.820312 206.777344 184.109375 206.230469 183.277344 206.160156 C 182.457031 206.097656 181.65625 206.507812 181.242188 207.230469 C 180.925781 207.785156 180.589844 208.269531 180.25 208.664062 C 178.464844 206.578125 177.117188 202.382812 177.027344 199.496094 C 181.144531 197.445312 184.664062 194.484375 187.382812 190.816406 C 190.101562 194.488281 193.621094 197.449219 197.734375 199.496094 C 197.640625 202.378906 196.296875 206.566406 194.503906 208.660156 Z M 222.160156 187.964844 C 221.800781 192.503906 218.789062 197.90625 211.5 198.191406 C 211.179688 198.203125 210.855469 198.207031 210.527344 198.207031 C 206.882812 198.207031 203.367188 197.425781 200.089844 195.882812 C 195.90625 193.90625 192.402344 190.835938 189.894531 186.953125 C 189.929688 186.894531 189.964844 186.832031 190.003906 186.773438 C 190.128906 186.585938 190.265625 186.398438 190.394531 186.214844 C 190.570312 185.964844 190.742188 185.714844 190.925781 185.476562 C 191.066406 185.289062 191.210938 185.113281 191.355469 184.933594 C 191.542969 184.703125 191.730469 184.46875 191.921875 184.246094 C 192.074219 184.070312 192.234375 183.898438 192.390625 183.726562 C 192.589844 183.511719 192.785156 183.296875 192.992188 183.085938 C 193.15625 182.917969 193.324219 182.757812 193.492188 182.59375 C 193.703125 182.390625 193.914062 182.191406 194.128906 182 C 194.304688 181.84375 194.480469 181.691406 194.660156 181.539062 C 194.878906 181.355469 195.101562 181.171875 195.328125 180.992188 C 195.511719 180.847656 195.699219 180.703125 195.886719 180.566406 C 196.117188 180.394531 196.347656 180.226562 196.585938 180.066406 C 196.777344 179.929688 196.972656 179.800781 197.167969 179.671875 C 197.410156 179.515625 197.652344 179.363281 197.898438 179.21875 C 198.097656 179.097656 198.300781 178.976562 198.503906 178.859375 C 198.753906 178.71875 199.007812 178.585938 199.261719 178.453125 C 199.46875 178.347656 199.675781 178.238281 199.886719 178.136719 C 200.144531 178.011719 200.410156 177.890625 200.671875 177.777344 C 200.882812 177.679688 201.097656 177.585938 201.3125 177.5 C 201.582031 177.390625 201.855469 177.289062 202.125 177.1875 C 202.34375 177.109375 202.558594 177.027344 202.777344 176.953125 C 203.058594 176.859375 203.339844 176.777344 203.621094 176.691406 C 203.839844 176.628906 204.054688 176.558594 204.277344 176.5 C 204.570312 176.421875 204.863281 176.355469 205.160156 176.292969 C 205.375 176.242188 205.589844 176.1875 205.808594 176.144531 C 206.121094 176.082031 206.433594 176.035156 206.746094 175.988281 C 206.953125 175.957031 207.15625 175.917969 207.363281 175.890625 C 207.710938 175.84375 208.0625 175.8125 208.414062 175.78125 C 208.589844 175.765625 208.761719 175.742188 208.9375 175.730469 C 209.46875 175.695312 210 175.679688 210.535156 175.679688 C 210.867188 175.679688 211.195312 175.683594 211.503906 175.695312 C 212.28125 175.726562 212.980469 175.808594 213.65625 175.953125 C 220.054688 177.242188 222.550781 183.085938 222.160156 187.964844 Z M 222.160156 187.964844 " fill-opacity="1" fill-rule="nonzero"/></g><path fill="rgb(7.839966%, 12.548828%, 13.729858%)" d="M 187.375 161.417969 C 192.796875 161.417969 197.210938 156.992188 197.210938 151.550781 C 197.210938 146.109375 192.796875 141.683594 187.375 141.683594 C 181.953125 141.683594 177.542969 146.109375 177.542969 151.550781 C 177.539062 156.992188 181.953125 161.417969 187.375 161.417969 Z M 187.375 145.980469 C 190.4375 145.980469 192.929688 148.480469 192.929688 151.550781 C 192.929688 154.621094 190.4375 157.121094 187.375 157.121094 C 184.316406 157.121094 181.824219 154.621094 181.824219 151.550781 C 181.824219 148.476562 184.316406 145.980469 187.375 145.980469 Z M 187.375 145.980469 " fill-opacity="1" fill-rule="nonzero"/><g fill="rgb(5.099487%, 3.919983%, 13.729858%)" fill-opacity="1"><g transform="translate(102.875887, 248.300228)"><g><path d="M 7.929688 0.261719 C 11.566406 0.261719 14.65625 -1.882812 14.65625 -5.523438 C 14.65625 -12.738281 5.6875 -10.949219 5.6875 -14.328125 C 5.6875 -15.433594 6.53125 -15.953125 7.570312 -15.953125 C 8.675781 -15.953125 9.78125 -15.335938 10.753906 -14.265625 L 13.613281 -16.996094 C 12.183594 -18.652344 10.007812 -19.757812 7.605469 -19.757812 C 4.515625 -19.757812 1.363281 -17.902344 1.363281 -14.003906 C 1.363281 -7.375 10.367188 -8.96875 10.367188 -5.554688 C 10.367188 -4.484375 9.457031 -3.769531 7.960938 -3.769531 C 6.171875 -3.769531 4.777344 -4.777344 4.0625 -6.304688 L 0.519531 -4.09375 C 1.789062 -1.65625 4.515625 0.261719 7.929688 0.261719 Z M 7.929688 0.261719 "/></g></g></g><g fill="rgb(5.099487%, 3.919983%, 13.729858%)" fill-opacity="1"><g transform="translate(117.756293, 248.300228)"><g><path d="M 9.78125 -13.257812 C 8.285156 -13.257812 7.050781 -12.738281 6.078125 -11.859375 L 6.078125 -12.964844 L 1.917969 -12.996094 L 1.917969 7.796875 L 6.078125 7.832031 L 6.078125 -1.136719 C 7.050781 -0.261719 8.285156 0.261719 9.78125 0.261719 C 13.355469 0.261719 16.183594 -2.730469 16.183594 -6.5 C 16.183594 -10.269531 13.355469 -13.257812 9.78125 -13.257812 Z M 8.96875 -3.410156 C 7.246094 -3.410156 5.882812 -4.777344 5.882812 -6.5 C 5.882812 -8.222656 7.246094 -9.585938 8.96875 -9.585938 C 10.691406 -9.585938 12.054688 -8.222656 12.054688 -6.5 C 12.054688 -4.777344 10.691406 -3.410156 8.96875 -3.410156 Z M 8.96875 -3.410156 "/></g></g></g><g fill="rgb(5.099487%, 3.919983%, 13.729858%)" fill-opacity="1"><g transform="translate(134.42367, 248.300228)"><g><path d="M 16.410156 -3.378906 C 15.855469 -3.378906 15.273438 -3.574219 15.273438 -4.648438 L 15.273438 -12.996094 L 11.144531 -12.996094 L 11.144531 -11.859375 C 10.171875 -12.738281 8.9375 -13.257812 7.441406 -13.257812 C 3.835938 -13.257812 1.007812 -10.269531 1.007812 -6.5 C 1.007812 -2.730469 3.835938 0.261719 7.441406 0.261719 C 9.324219 0.261719 10.851562 -0.585938 11.894531 -1.949219 C 12.703125 -0.617188 14.136719 0.261719 15.890625 0.261719 C 16.3125 0.261719 16.703125 0.128906 16.996094 0 L 16.996094 -3.378906 Z M 8.253906 -3.410156 C 6.53125 -3.410156 5.167969 -4.777344 5.167969 -6.5 C 5.167969 -8.222656 6.53125 -9.585938 8.253906 -9.585938 C 9.941406 -9.585938 11.339844 -8.222656 11.339844 -6.5 C 11.339844 -4.777344 9.941406 -3.410156 8.253906 -3.410156 Z M 8.253906 -3.410156 "/></g></g></g><g fill="rgb(5.099487%, 3.919983%, 13.729858%)" fill-opacity="1"><g transform="translate(151.383453, 248.300228)"><g><path d="M 8.253906 0.261719 C 12.152344 0.261719 14.816406 -2.015625 15.371094 -5.265625 L 11.082031 -5.265625 C 10.65625 -4.160156 9.585938 -3.445312 8.253906 -3.410156 C 6.464844 -3.445312 5.167969 -4.742188 5.167969 -6.5 C 5.167969 -8.253906 6.464844 -9.554688 8.253906 -9.585938 C 9.585938 -9.554688 10.65625 -8.839844 11.082031 -7.734375 L 15.371094 -7.734375 C 14.816406 -10.984375 12.152344 -13.257812 8.253906 -13.257812 C 3.898438 -13.257812 1.007812 -10.398438 1.007812 -6.5 C 1.007812 -2.597656 3.898438 0.261719 8.253906 0.261719 Z M 8.253906 0.261719 "/></g></g></g><g fill="rgb(5.099487%, 3.919983%, 13.729858%)" fill-opacity="1"><g transform="translate(166.978647, 248.300228)"><g><path d="M 15.140625 -6.53125 C 15.140625 -10.59375 12.347656 -13.289062 8.15625 -13.289062 C 3.964844 -13.289062 1.007812 -10.558594 1.007812 -6.5 C 1.007812 -2.4375 3.933594 0.261719 8.285156 0.261719 C 11.894531 0.261719 14.296875 -1.65625 14.945312 -4.484375 L 10.949219 -4.484375 C 10.59375 -3.445312 9.652344 -2.828125 8.222656 -2.828125 C 6.335938 -2.828125 5.363281 -3.964844 5.199219 -5.816406 L 15.140625 -5.816406 Z M 8.222656 -10.105469 C 9.617188 -10.105469 10.429688 -9.457031 10.851562 -8.320312 L 5.457031 -8.320312 C 5.882812 -9.421875 6.757812 -10.105469 8.222656 -10.105469 Z M 8.222656 -10.105469 "/></g></g></g><g fill="rgb(5.099487%, 3.919983%, 13.729858%)" fill-opacity="1"><g transform="translate(182.573841, 248.300228)"><g><path d="M 12.085938 -8.027344 C 14.394531 -8.707031 16.019531 -10.851562 16.019531 -13.515625 C 16.019531 -16.832031 13.550781 -19.496094 10.203125 -19.496094 L 1.917969 -19.496094 L 1.917969 0 L 6.207031 0 L 6.207031 -7.539062 L 7.929688 -7.539062 L 12.738281 0 L 17.546875 0 Z M 9.554688 -11.082031 L 6.207031 -11.082031 L 6.207031 -15.695312 L 9.554688 -15.695312 C 10.917969 -15.695312 11.925781 -14.71875 11.925781 -13.386719 C 11.925781 -12.023438 10.917969 -11.082031 9.554688 -11.082031 Z M 9.554688 -11.082031 "/></g></g></g><g fill="rgb(5.099487%, 3.919983%, 13.729858%)" fill-opacity="1"><g transform="translate(199.43616, 248.300228)"><g><path d="M 8.253906 0.261719 C 12.609375 0.261719 15.46875 -2.597656 15.46875 -6.5 C 15.46875 -10.398438 12.609375 -13.257812 8.253906 -13.257812 C 3.898438 -13.257812 1.007812 -10.398438 1.007812 -6.5 C 1.007812 -2.597656 3.898438 0.261719 8.253906 0.261719 Z M 8.253906 -3.410156 C 6.464844 -3.445312 5.167969 -4.742188 5.167969 -6.5 C 5.167969 -8.253906 6.464844 -9.554688 8.253906 -9.585938 C 10.007812 -9.554688 11.339844 -8.253906 11.339844 -6.5 C 11.339844 -4.742188 10.007812 -3.445312 8.253906 -3.410156 Z M 8.253906 -3.410156 "/></g></g></g><g fill="rgb(5.099487%, 3.919983%, 13.729858%)" fill-opacity="1"><g transform="translate(215.421244, 248.300228)"><g><path d="M 8.253906 0.261719 C 12.152344 0.261719 14.816406 -2.015625 15.371094 -5.265625 L 11.082031 -5.265625 C 10.65625 -4.160156 9.585938 -3.445312 8.253906 -3.410156 C 6.464844 -3.445312 5.167969 -4.742188 5.167969 -6.5 C 5.167969 -8.253906 6.464844 -9.554688 8.253906 -9.585938 C 9.585938 -9.554688 10.65625 -8.839844 11.082031 -7.734375 L 15.371094 -7.734375 C 14.816406 -10.984375 12.152344 -13.257812 8.253906 -13.257812 C 3.898438 -13.257812 1.007812 -10.398438 1.007812 -6.5 C 1.007812 -2.597656 3.898438 0.261719 8.253906 0.261719 Z M 8.253906 0.261719 "/></g></g></g><g fill="rgb(5.099487%, 3.919983%, 13.729858%)" fill-opacity="1"><g transform="translate(231.016438, 248.300228)"><g><path d="M 16.214844 0 L 10.039062 -7.117188 L 15.726562 -12.996094 L 10.753906 -12.996094 L 6.238281 -8.320312 L 6.238281 -22.257812 L 2.113281 -22.257812 L 2.113281 0 L 6.238281 0 L 6.238281 -5.980469 L 10.820312 0 Z M 16.214844 0 "/></g></g></g><g fill="rgb(5.099487%, 3.919983%, 13.729858%)" fill-opacity="1"><g transform="translate(246.124286, 248.300228)"><g><path d="M 15.140625 -6.53125 C 15.140625 -10.59375 12.347656 -13.289062 8.15625 -13.289062 C 3.964844 -13.289062 1.007812 -10.558594 1.007812 -6.5 C 1.007812 -2.4375 3.933594 0.261719 8.285156 0.261719 C 11.894531 0.261719 14.296875 -1.65625 14.945312 -4.484375 L 10.949219 -4.484375 C 10.59375 -3.445312 9.652344 -2.828125 8.222656 -2.828125 C 6.335938 -2.828125 5.363281 -3.964844 5.199219 -5.816406 L 15.140625 -5.816406 Z M 8.222656 -10.105469 C 9.617188 -10.105469 10.429688 -9.457031 10.851562 -8.320312 L 5.457031 -8.320312 C 5.882812 -9.421875 6.757812 -10.105469 8.222656 -10.105469 Z M 8.222656 -10.105469 "/></g></g></g><g fill="rgb(5.099487%, 3.919983%, 13.729858%)" fill-opacity="1"><g transform="translate(261.719481, 248.300228)"><g><path d="M 9.75 -9.78125 L 9.75 -12.996094 L 6.660156 -12.996094 L 6.660156 -18 L 2.535156 -18 L 2.535156 -12.996094 L 0.359375 -12.996094 L 0.359375 -9.78125 L 2.535156 -9.78125 L 2.535156 -4.648438 C 2.535156 -1.882812 4.875 0.261719 7.636719 0.261719 C 8.511719 0.261719 9.390625 0.0664062 9.714844 -0.164062 L 9.714844 -3.378906 L 8.15625 -3.378906 C 7.277344 -3.378906 6.660156 -4.0625 6.660156 -5.132812 L 6.660156 -9.78125 Z M 9.75 -9.78125 "/></g></g></g><g fill="rgb(5.099487%, 3.919983%, 13.729858%)" fill-opacity="1"><g transform="translate(162.816299, 263.850218)"><g><path d="M 2.859375 -6.34375 C 3.566406 -6.34375 4.109375 -6.164062 4.484375 -5.8125 C 4.859375 -5.457031 5.082031 -4.984375 5.15625 -4.390625 L 3.890625 -4.390625 C 3.847656 -4.710938 3.738281 -4.960938 3.5625 -5.140625 C 3.382812 -5.316406 3.132812 -5.40625 2.8125 -5.40625 C 2.5625 -5.40625 2.351562 -5.34375 2.1875 -5.21875 C 2.019531 -5.09375 1.9375 -4.910156 1.9375 -4.671875 C 1.9375 -4.410156 2.035156 -4.203125 2.234375 -4.046875 C 2.429688 -3.898438 2.773438 -3.769531 3.265625 -3.65625 C 3.941406 -3.5 4.441406 -3.257812 4.765625 -2.9375 C 5.085938 -2.625 5.25 -2.210938 5.25 -1.703125 C 5.25 -1.140625 5.023438 -0.691406 4.578125 -0.359375 C 4.140625 -0.0351562 3.597656 0.125 2.953125 0.125 C 2.191406 0.125 1.585938 -0.0390625 1.140625 -0.375 C 0.691406 -0.707031 0.4375 -1.195312 0.375 -1.84375 L 1.640625 -1.84375 C 1.710938 -1.507812 1.863281 -1.25 2.09375 -1.0625 C 2.332031 -0.882812 2.613281 -0.796875 2.9375 -0.796875 C 3.21875 -0.796875 3.457031 -0.867188 3.65625 -1.015625 C 3.851562 -1.160156 3.953125 -1.347656 3.953125 -1.578125 C 3.953125 -1.847656 3.859375 -2.0625 3.671875 -2.21875 C 3.484375 -2.382812 3.160156 -2.519531 2.703125 -2.625 C 2.015625 -2.789062 1.5 -3.015625 1.15625 -3.296875 C 0.8125 -3.578125 0.640625 -3.984375 0.640625 -4.515625 C 0.640625 -5.066406 0.851562 -5.507812 1.28125 -5.84375 C 1.71875 -6.175781 2.242188 -6.34375 2.859375 -6.34375 Z M 2.859375 -6.34375 "/></g></g></g><g fill="rgb(5.099487%, 3.919983%, 13.729858%)" fill-opacity="1"><g transform="translate(169.368338, 263.850218)"><g><path d="M 3.453125 -3.234375 L 6.078125 0 L 4.46875 0 L 2.5625 -2.515625 L 2.046875 -1.953125 L 2.046875 0 L 0.796875 0 L 0.796875 -6.203125 L 2.046875 -6.203125 L 2.046875 -3.21875 L 4.71875 -6.203125 L 6.203125 -6.203125 Z M 3.453125 -3.234375 "/></g></g></g><g fill="rgb(5.099487%, 3.919983%, 13.729858%)" fill-opacity="1"><g transform="translate(176.595383, 263.850218)"><g><path d="M 3.578125 -2.40625 L 3.578125 0 L 2.34375 0 L 2.34375 -2.40625 L 0.140625 -6.203125 L 1.546875 -6.203125 L 3 -3.5 L 4.40625 -6.203125 L 5.765625 -6.203125 Z M 3.578125 -2.40625 "/></g></g></g><g fill="rgb(5.099487%, 3.919983%, 13.729858%)" fill-opacity="1"><g transform="translate(183.309423, 263.850218)"><g/></g></g><g fill="rgb(5.099487%, 3.919983%, 13.729858%)" fill-opacity="1"><g transform="translate(186.135437, 263.850218)"><g><path d="M 6.1875 -6.203125 L 6.1875 0 L 4.953125 0 L 4.953125 -2.546875 L 2.046875 -2.546875 L 2.046875 0 L 0.796875 0 L 0.796875 -6.203125 L 2.046875 -6.203125 L 2.046875 -3.53125 L 4.953125 -3.53125 L 4.953125 -6.203125 Z M 6.1875 -6.203125 "/></g></g></g><g fill="rgb(5.099487%, 3.919983%, 13.729858%)" fill-opacity="1"><g transform="translate(193.983486, 263.850218)"><g><path d="M 2.046875 0 L 0.796875 0 L 0.796875 -6.203125 L 2.046875 -6.203125 Z M 2.046875 0 "/></g></g></g><g fill="rgb(5.099487%, 3.919983%, 13.729858%)" fill-opacity="1"><g transform="translate(197.691506, 263.850218)"><g><path d="M 3.640625 -3.171875 L 6.140625 -3.171875 L 6.140625 0 L 5.140625 0 L 5.0625 -1.015625 L 4.78125 -0.375 C 4.445312 -0.0390625 3.945312 0.125 3.28125 0.125 C 2.414062 0.125 1.726562 -0.160156 1.21875 -0.734375 C 0.707031 -1.304688 0.453125 -2.082031 0.453125 -3.0625 C 0.453125 -4.0625 0.738281 -4.859375 1.3125 -5.453125 C 1.894531 -6.046875 2.628906 -6.34375 3.515625 -6.34375 C 4.328125 -6.34375 4.960938 -6.144531 5.421875 -5.75 C 5.878906 -5.351562 6.140625 -4.832031 6.203125 -4.1875 L 6.203125 -4.109375 L 4.96875 -4.109375 L 4.953125 -4.1875 C 4.785156 -5 4.300781 -5.40625 3.5 -5.40625 C 2.988281 -5.40625 2.570312 -5.203125 2.25 -4.796875 C 1.925781 -4.390625 1.765625 -3.835938 1.765625 -3.140625 C 1.765625 -2.390625 1.921875 -1.8125 2.234375 -1.40625 C 2.546875 -1 2.957031 -0.796875 3.46875 -0.796875 C 3.863281 -0.796875 4.195312 -0.914062 4.46875 -1.15625 C 4.738281 -1.40625 4.898438 -1.753906 4.953125 -2.203125 L 3.640625 -2.203125 Z M 3.640625 -3.171875 "/></g></g></g><g fill="rgb(5.099487%, 3.919983%, 13.729858%)" fill-opacity="1"><g transform="translate(205.404546, 263.850218)"><g><path d="M 6.1875 -6.203125 L 6.1875 0 L 4.953125 0 L 4.953125 -2.546875 L 2.046875 -2.546875 L 2.046875 0 L 0.796875 0 L 0.796875 -6.203125 L 2.046875 -6.203125 L 2.046875 -3.53125 L 4.953125 -3.53125 L 4.953125 -6.203125 Z M 6.1875 -6.203125 "/></g></g></g></svg>